<svg width="180" height="54" viewBox="0 0 180 54" fill="none" xmlns="http://www.w3.org/2000/svg">
<g clip-path="url(#clip0_1_2)">
<path d="M178.854 47.3764C178.854 48.0478 178.721 48.7126 178.464 49.3329C178.207 49.9531 177.83 50.5166 177.355 50.9912C176.88 51.4657 176.316 51.8419 175.695 52.0984C175.074 52.3548 174.409 52.4865 173.737 52.4858H6.31042C4.95342 52.4872 3.65141 51.9497 2.69074 50.9916C1.73006 50.0334 1.18939 48.733 1.18762 47.3764V6.63029C1.18939 5.27304 1.72985 3.97195 2.69033 3.01273C3.65081 2.0535 4.9528 1.51454 6.31042 1.51419H173.736C174.408 1.51419 175.073 1.64653 175.694 1.90366C176.315 2.16078 176.879 2.53765 177.354 3.01274C177.829 3.48784 178.206 4.05184 178.463 4.67255C178.72 5.29325 178.852 5.9585 178.852 6.63029L178.854 47.3764Z" fill="white"/>
<path d="M173.737 53.6744H6.31042C4.63875 53.6741 3.03549 53.0108 1.85244 51.83C0.669388 50.6493 0.00318073 49.0476 0 47.3764L0 6.63164C0.002473 4.95958 0.668241 3.35677 1.85125 2.17482C3.03427 0.992874 4.63792 0.3283 6.31042 0.326889L173.736 0.326889C175.408 0.329005 177.012 0.993805 178.194 2.1756C179.377 3.3574 180.043 4.9598 180.046 6.63164V47.3764C180.049 50.8503 177.214 53.6744 173.737 53.6744Z" fill="#A6A6A6"/>
<path d="M178.854 47.3764C178.854 48.0478 178.721 48.7126 178.464 49.3329C178.207 49.9531 177.83 50.5166 177.355 50.9912C176.88 51.4657 176.316 51.8419 175.695 52.0984C175.074 52.3548 174.409 52.4865 173.737 52.4858H6.31042C4.95342 52.4872 3.65141 51.9497 2.69074 50.9916C1.73006 50.0334 1.18939 48.733 1.18762 47.3764V6.63029C1.18939 5.27304 1.72985 3.97195 2.69033 3.01273C3.65081 2.0535 4.9528 1.51454 6.31042 1.51419H173.736C174.408 1.51419 175.073 1.64653 175.694 1.90366C176.315 2.16078 176.879 2.53765 177.354 3.01274C177.829 3.48784 178.206 4.05184 178.463 4.67255C178.72 5.29325 178.852 5.9585 178.852 6.63029L178.854 47.3764Z" fill="black"/>
<path d="M40.2031 26.7198C40.1644 22.4202 43.7246 20.3284 43.8874 20.231C41.8711 17.2921 38.7459 16.8905 37.6477 16.8585C35.0229 16.5824 32.4769 18.4287 31.1398 18.4287C29.776 18.4287 27.717 16.8852 25.4979 16.9305C22.6423 16.9746 19.9708 18.6275 18.5056 21.1942C15.4818 26.4277 17.737 34.1185 20.634 38.3488C22.0831 40.4219 23.7765 42.7338 25.993 42.6525C28.1614 42.5644 28.9714 41.2717 31.5881 41.2717C34.1809 41.2717 34.9415 42.6525 37.202 42.6004C39.5292 42.5644 40.9944 40.5193 42.3928 38.4289C44.0675 36.0556 44.7401 33.7156 44.7668 33.5956C44.7134 33.5769 40.2485 31.872 40.2031 26.7198ZM35.933 14.0757C37.0992 12.6175 37.8972 10.6338 37.6757 8.62071C35.9877 8.69542 33.8767 9.78801 32.661 11.2141C31.5855 12.4708 30.6247 14.5306 30.8729 16.4676C32.7691 16.609 34.716 15.5111 35.933 14.0757Z" fill="white"/>
<path d="M173.737 0.326889H84.0584L119.184 53.6744H173.737C175.409 53.673 177.013 53.0088 178.196 51.8275C179.379 50.6461 180.045 49.044 180.048 47.3724V6.63164C180.045 4.95969 179.379 3.35709 178.196 2.17521C177.013 0.99334 175.41 0.328653 173.737 0.326889Z" fill="url(#paint0_linear_1_2)"/>
<path d="M71.6111 42.355H68.5806L66.9206 37.1402H61.1506L59.5694 42.355H56.619L62.3369 24.6014H65.8678L71.6111 42.355ZM66.4202 34.9523L64.919 30.3165C64.7602 29.8429 64.4613 28.7276 64.0236 26.972H63.9702C63.7941 27.7271 63.5125 28.8423 63.1269 30.3165L61.651 34.9523H66.4202ZM86.2869 35.7968C86.2869 37.9739 85.6958 39.6949 84.5121 40.9582C83.4526 42.0828 82.1356 42.6445 80.565 42.6445C78.8689 42.6445 77.6493 42.0401 76.9087 40.8288V47.5458H74.0637V33.761C74.0637 32.3936 74.0277 30.9915 73.9583 29.5534H76.4603L76.6191 31.5825H76.6725C77.6213 30.0537 79.0611 29.2892 80.9933 29.2892C82.5039 29.2892 83.7649 29.8856 84.7737 31.0795C85.7812 32.2762 86.2869 33.8477 86.2869 35.7968ZM83.3886 35.9008C83.3886 34.6548 83.1083 33.6276 82.5452 32.8178C81.9301 31.976 81.1041 31.5545 80.0686 31.5545C79.3667 31.5545 78.7288 31.7893 78.159 32.2522C77.5879 32.7191 77.2143 33.3288 77.0395 34.0838C76.9614 34.3662 76.9171 34.6568 76.9073 34.9496V37.0855C76.9073 38.0153 77.1929 38.8011 77.764 39.4441C78.3352 40.0844 79.0771 40.4059 79.9898 40.4059C81.0614 40.4059 81.8954 39.991 82.4918 39.1679C83.0897 38.3421 83.3886 37.2536 83.3886 35.9008ZM101.015 35.7968C101.015 37.9739 100.424 39.6949 99.24 40.9582C98.1792 42.0828 96.8634 42.6445 95.2915 42.6445C93.5955 42.6445 92.3758 42.0401 91.6352 40.8288V47.5458H88.7903V33.761C88.7903 32.3936 88.7542 30.9915 88.6848 29.5534H91.1869L91.3457 31.5825H91.399C92.3465 30.0537 93.7863 29.2892 95.7198 29.2892C97.2291 29.2892 98.4901 29.8856 99.5016 31.0795C100.508 32.2762 101.015 33.8477 101.015 35.7968ZM98.1151 35.9008C98.1151 34.6548 97.8335 33.6276 97.2704 32.8178C96.6553 31.976 95.8319 31.5545 94.7964 31.5545C94.0945 31.5545 93.4567 31.7893 92.8842 32.2522C92.3131 32.7191 91.9408 33.3288 91.766 34.0838C91.6792 34.436 91.6325 34.7229 91.6325 34.9496V37.0855C91.6325 38.0153 91.9194 38.8011 92.4879 39.4441C93.059 40.0831 93.801 40.4059 94.7164 40.4059C95.7892 40.4059 96.6232 39.991 97.2184 39.1679C97.8162 38.3421 98.1151 37.2536 98.1151 35.9008ZM117.481 37.375C117.481 38.8864 116.953 40.1151 115.903 41.0636C114.747 42.0988 113.134 42.6178 111.066 42.6178C109.155 42.6178 107.623 42.2496 106.467 41.5119L107.125 39.1412C108.373 39.8803 109.743 40.2485 111.235 40.2485C112.308 40.2485 113.142 40.0057 113.737 39.5241C114.334 39.0412 114.635 38.3955 114.635 37.5897C114.635 36.868 114.386 36.2637 113.896 35.7714C113.403 35.2805 112.589 34.8229 111.446 34.4027C108.337 33.2434 106.781 31.5478 106.781 29.3173C106.781 27.8605 107.331 26.6678 108.427 25.7353C109.524 24.8041 110.979 24.3386 112.788 24.3386C114.404 24.3386 115.751 24.62 116.82 25.1817L116.106 27.5003C115.099 26.956 113.964 26.6838 112.694 26.6838C111.69 26.6838 110.903 26.9306 110.34 27.4216C109.866 27.8605 109.626 28.3954 109.626 29.0304C109.626 29.7308 109.899 30.3125 110.444 30.7687C110.916 31.1889 111.778 31.6465 113.024 32.1375C114.554 32.7538 115.677 33.4715 116.397 34.296C117.121 35.1204 117.481 36.149 117.481 37.375ZM126.912 31.6879H123.776V37.9032C123.776 39.4841 124.328 40.2725 125.436 40.2725C125.944 40.2725 126.366 40.2298 126.699 40.1405L126.778 42.3003C126.218 42.5097 125.48 42.6151 124.566 42.6151C123.442 42.6151 122.564 42.2723 121.93 41.5866C121.299 40.9009 120.982 39.7522 120.982 38.1354V31.6825H119.113V29.548H120.982V27.2041L123.776 26.361V29.548H126.912V31.6879ZM141.032 35.8488C141.032 37.8165 140.469 39.4321 139.346 40.6954C138.17 41.9961 136.606 42.6445 134.657 42.6445C132.775 42.6445 131.279 42.0215 130.164 40.7768C129.048 39.5295 128.49 37.9579 128.49 36.0622C128.49 34.0785 129.067 32.4536 130.216 31.1903C131.367 29.9256 132.918 29.2932 134.867 29.2932C136.746 29.2932 138.255 29.9176 139.398 31.1636C140.489 32.3722 141.032 33.9331 141.032 35.8488ZM138.083 35.9142C138.083 34.7415 137.83 33.7357 137.321 32.8939C136.725 31.8773 135.871 31.369 134.765 31.369C133.625 31.369 132.751 31.8773 132.156 32.8939C131.646 33.7357 131.393 34.7589 131.393 35.9675C131.393 37.1415 131.646 38.15 132.156 38.9892C132.771 40.0057 133.629 40.514 134.741 40.514C135.828 40.514 136.681 39.995 137.297 38.9638C137.82 38.102 138.083 37.0895 138.083 35.9142ZM150.284 32.0547C149.988 32.0013 149.688 31.975 149.387 31.976C148.386 31.976 147.612 32.3522 147.068 33.11C146.596 33.777 146.358 34.6201 146.358 35.638V42.355H143.513V33.5849C143.516 32.2411 143.488 30.8973 143.43 29.5547H145.908L146.012 32.004H146.091C146.393 31.1623 146.865 30.4832 147.514 29.9749C148.107 29.5308 148.828 29.2903 149.57 29.2892C149.833 29.2892 150.07 29.3079 150.281 29.3413L150.284 32.0547ZM163.007 35.3485C163.015 35.7809 162.98 36.2129 162.903 36.6386H154.368C154.4 37.9032 154.814 38.8718 155.607 39.5388C156.326 40.1338 157.256 40.4326 158.398 40.4326C159.662 40.4326 160.815 40.2325 161.852 39.8283L162.298 41.8014C161.086 42.3296 159.655 42.5924 158.005 42.5924C156.019 42.5924 154.461 42.0081 153.326 40.8422C152.195 39.6749 151.628 38.106 151.628 36.141C151.628 34.2119 152.155 32.6044 153.21 31.3223C154.315 29.9536 155.808 29.2692 157.687 29.2692C159.533 29.2692 160.93 29.9536 161.879 31.3223C162.63 32.4069 163.007 33.7517 163.007 35.3485ZM160.295 34.6108C160.315 33.7663 160.128 33.0393 159.742 32.4243C159.25 31.6318 158.492 31.237 157.476 31.237C156.546 31.237 155.788 31.6225 155.212 32.3963C154.738 33.0113 154.457 33.7503 154.37 34.6081L160.295 34.6108Z" fill="white"/>
<path d="M60.33 18.3246C59.5387 18.3246 58.8541 18.2859 58.2843 18.2206V9.63726C59.0813 9.51419 59.8866 9.45353 60.6929 9.45583C63.9556 9.45583 65.4581 11.0607 65.4581 13.6768C65.4581 16.6944 63.6833 18.3246 60.33 18.3246ZM60.8077 10.5564C60.3673 10.5564 59.9924 10.5831 59.6815 10.6471V17.172C59.8496 17.1987 60.1725 17.2107 60.6262 17.2107C62.7639 17.2107 63.9809 15.994 63.9809 13.7155C63.9809 11.6837 62.88 10.5564 60.8077 10.5564ZM70.1406 18.39C68.3017 18.39 67.1101 17.0173 67.1101 15.1536C67.1101 13.2112 68.3271 11.8264 70.2446 11.8264C72.0568 11.8264 73.2751 13.1338 73.2751 15.0509C73.2751 17.0173 72.0194 18.39 70.1406 18.39ZM70.1939 12.8483C69.1838 12.8483 68.5366 13.7928 68.5366 15.1136C68.5366 16.4089 69.1971 17.3534 70.1806 17.3534C71.164 17.3534 71.8246 16.3436 71.8246 15.0869C71.8246 13.8062 71.1774 12.8483 70.1939 12.8483ZM83.7609 11.9559L81.7926 18.2473H80.5102L79.6949 15.5151C79.4922 14.8468 79.3234 14.1687 79.1892 13.4833H79.1625C79.0597 14.1691 78.8649 14.8561 78.6581 15.5151L77.7907 18.2473H76.495L74.6429 11.9559H76.08L76.7926 14.9468C76.9607 15.6592 77.1022 16.3316 77.2196 16.9666H77.2463C77.349 16.4369 77.5172 15.7753 77.764 14.9601L78.6581 11.9572H79.7977L80.653 14.8961C80.8599 15.6085 81.028 16.3075 81.1588 16.9679H81.1961C81.2869 16.3209 81.4297 15.6338 81.6231 14.8961L82.3878 11.9572L83.7609 11.9559ZM91.0067 18.2473H89.6083V14.6346C89.6083 13.522 89.1812 12.9644 88.3392 12.9644C87.5106 12.9644 86.9408 13.6768 86.9408 14.5052V18.2473H85.5423V13.7542C85.5423 13.1979 85.529 12.6015 85.4903 11.9545H86.7206L86.786 12.9257H86.8247C87.201 12.2533 87.9643 11.8264 88.8196 11.8264C90.1407 11.8264 91.008 12.8363 91.008 14.4799L91.0067 18.2473ZM94.8631 18.2473H93.4634V9.06895H94.8631V18.2473ZM99.9619 18.39C98.1245 18.39 96.9315 17.0173 96.9315 15.1536C96.9315 13.2112 98.1485 11.8264 100.065 11.8264C101.878 11.8264 103.095 13.1338 103.095 15.0509C103.096 17.0173 101.839 18.39 99.9619 18.39ZM100.014 12.8483C99.0038 12.8483 98.3566 13.7928 98.3566 15.1136C98.3566 16.4089 99.0185 17.3534 99.9993 17.3534C100.984 17.3534 101.643 16.3436 101.643 15.0869C101.645 13.8062 100.999 12.8483 100.014 12.8483ZM108.609 18.2473L108.507 17.5229H108.47C108.043 18.1058 107.42 18.39 106.63 18.39C105.502 18.39 104.702 17.6002 104.702 16.5383C104.702 14.9855 106.048 14.1824 108.379 14.1824V14.0663C108.379 13.2379 107.94 12.823 107.073 12.823C106.452 12.823 105.908 12.9791 105.429 13.2899L105.145 12.3707C105.727 12.0079 106.452 11.8264 107.305 11.8264C108.949 11.8264 109.779 12.6936 109.779 14.4292V16.7464C109.779 17.3815 109.807 17.8737 109.87 18.2486L108.609 18.2473ZM108.417 15.1136C106.863 15.1136 106.084 15.4898 106.084 16.3822C106.084 17.0426 106.486 17.3654 107.044 17.3654C107.755 17.3654 108.417 16.8225 108.417 16.0848V15.1136ZM116.57 18.2473L116.505 17.2374H116.466C116.064 18.0005 115.389 18.39 114.446 18.39C112.928 18.39 111.805 17.0559 111.805 15.1789C111.805 13.2112 112.97 11.8251 114.56 11.8251C115.402 11.8251 115.999 12.1093 116.335 12.6802H116.363V9.06895H117.763V16.5517C117.763 17.16 117.778 17.7296 117.815 18.2473H116.57ZM116.363 14.5453C116.363 13.6648 115.78 12.9137 114.89 12.9137C113.853 12.9137 113.219 13.8329 113.219 15.1269C113.219 16.3956 113.877 17.2641 114.862 17.2641C115.741 17.2641 116.363 16.4996 116.363 15.5938V14.5453ZM126.638 18.39C124.801 18.39 123.609 17.0173 123.609 15.1536C123.609 13.2112 124.826 11.8264 126.742 11.8264C128.556 11.8264 129.773 13.1338 129.773 15.0509C129.774 17.0173 128.518 18.39 126.638 18.39ZM126.69 12.8483C125.681 12.8483 125.034 13.7928 125.034 15.1136C125.034 16.4089 125.695 17.3534 126.677 17.3534C127.662 17.3534 128.321 16.3436 128.321 15.0869C128.323 13.8062 127.676 12.8483 126.69 12.8483ZM137.293 18.2473H135.894V14.6346C135.894 13.522 135.467 12.9644 134.625 12.9644C133.796 12.9644 133.227 13.6768 133.227 14.5052V18.2473H131.828V13.7542C131.828 13.1979 131.814 12.6015 131.776 11.9545H133.006L133.071 12.9257H133.11C133.485 12.2533 134.25 11.8251 135.104 11.8251C136.425 11.8251 137.293 12.835 137.293 14.4786V18.2473ZM146.702 13.0044H145.164V16.0594C145.164 16.8372 145.433 17.2254 145.978 17.2254C146.225 17.2254 146.431 17.1987 146.598 17.16L146.637 18.2219C146.366 18.326 146.003 18.378 145.552 18.378C144.45 18.378 143.791 17.7697 143.791 16.1768V13.0044H142.873V11.9559H143.791V10.8032L145.164 10.3883V11.9545H146.702V13.0044ZM154.106 18.2473H152.708V14.6613C152.708 13.5354 152.283 12.9657 151.439 12.9657C150.715 12.9657 150.04 13.458 150.04 14.4545V18.2473H148.643V9.06895H150.04V12.8483H150.068C150.508 12.1626 151.146 11.8251 151.96 11.8251C153.292 11.8251 154.106 12.8603 154.106 14.5052V18.2473ZM161.69 15.4377H157.494C157.52 16.629 158.309 17.3014 159.477 17.3014C160.097 17.3014 160.668 17.1974 161.173 17.0039L161.39 17.9751C160.795 18.2339 160.094 18.3633 159.279 18.3633C157.311 18.3633 156.146 17.12 156.146 15.1923C156.146 13.2632 157.339 11.8131 159.122 11.8131C160.73 11.8131 161.738 13.0044 161.738 14.8041C161.747 15.0164 161.731 15.2291 161.69 15.4377ZM160.408 14.4412C160.408 13.47 159.918 12.7843 159.024 12.7843C158.221 12.7843 157.586 13.4833 157.495 14.4412H160.408Z" fill="white"/>
</g>
<defs>
<linearGradient id="paint0_linear_1_2" x1="132.052" y1="53.8161" x2="132.052" y2="-138.581" gradientUnits="userSpaceOnUse">
<stop stop-color="#1A1A1A" stop-opacity="0.1"/>
<stop offset="0.123" stop-color="#212121" stop-opacity="0.151"/>
<stop offset="0.308" stop-color="#353535" stop-opacity="0.227"/>
<stop offset="0.532" stop-color="#575757" stop-opacity="0.318"/>
<stop offset="0.783" stop-color="#858585" stop-opacity="0.421"/>
<stop offset="1" stop-color="#B3B3B3" stop-opacity="0.51"/>
</linearGradient>
<clipPath id="clip0_1_2">
<rect width="180" height="54" fill="white"/>
</clipPath>
</defs>
</svg>
