<svg width="180" height="54" viewBox="0 0 180 54" fill="none" xmlns="http://www.w3.org/2000/svg">
<g clip-path="url(#clip0_1_90)">
<path d="M173.333 53.6667H6.66667C2.93333 53.6667 0 50.7333 0 47V7.00001C0 3.26668 2.93333 0.333344 6.66667 0.333344H173.333C177.067 0.333344 180 3.26668 180 7.00001V47C180 50.7333 177.067 53.6667 173.333 53.6667Z" fill="black"/>
<path d="M173.333 1.40001C176.4 1.40001 178.933 3.93334 178.933 7.00001V47C178.933 50.0667 176.4 52.6 173.333 52.6H6.66667C3.6 52.6 1.06667 50.0667 1.06667 47V7.00001C1.06667 3.93334 3.6 1.40001 6.66667 1.40001H173.333ZM173.333 0.333344H6.66667C2.93333 0.333344 0 3.40001 0 7.00001V47C0 50.7333 2.93333 53.6667 6.66667 53.6667H173.333C177.067 53.6667 180 50.7333 180 47V7.00001C180 3.40001 177.067 0.333344 173.333 0.333344Z" fill="#A6A6A6"/>
<path d="M63.2 13.9334C63.2 15 62.9333 15.9334 62.2667 16.6C61.4667 17.4 60.5333 17.8 59.3333 17.8C58.1333 17.8 57.2 17.4 56.4 16.6C55.6 15.8 55.2 14.8667 55.2 13.6667C55.2 12.4667 55.6 11.5334 56.4 10.7334C57.2 9.93336 58.1333 9.53336 59.3333 9.53336C59.8667 9.53336 60.4 9.66669 60.9333 9.93336C61.4667 10.2 61.8667 10.4667 62.1333 10.8667L61.4667 11.5334C60.9333 10.8667 60.2667 10.6 59.3333 10.6C58.5333 10.6 57.7333 10.8667 57.2 11.5334C56.5333 12.0667 56.2667 12.8667 56.2667 13.8C56.2667 14.7334 56.5333 15.5334 57.2 16.0667C57.8667 16.6 58.5333 17 59.3333 17C60.2667 17 60.9333 16.7334 61.6 16.0667C62 15.6667 62.2667 15.1334 62.2667 14.4667H59.3333V13.4H63.2V13.9334ZM69.3333 10.6H65.7333V13.1334H69.0667V14.0667H65.7333V16.6H69.3333V17.6667H64.6667V9.66669H69.3333V10.6ZM73.7333 17.6667H72.6667V10.6H70.4V9.66669H76V10.6H73.7333V17.6667ZM79.8667 17.6667V9.66669H80.9333V17.6667H79.8667ZM85.4667 17.6667H84.4V10.6H82.1333V9.66669H87.6V10.6H85.3333V17.6667H85.4667ZM98.1333 16.6C97.3333 17.4 96.4 17.8 95.2 17.8C94 17.8 93.0667 17.4 92.2667 16.6C91.4667 15.8 91.0667 14.8667 91.0667 13.6667C91.0667 12.4667 91.4667 11.5334 92.2667 10.7334C93.0667 9.93336 94 9.53336 95.2 9.53336C96.4 9.53336 97.3333 9.93336 98.1333 10.7334C98.9333 11.5334 99.3333 12.4667 99.3333 13.6667C99.3333 14.8667 98.9333 15.8 98.1333 16.6ZM93.0667 15.9334C93.6 16.4667 94.4 16.8667 95.2 16.8667C96 16.8667 96.8 16.6 97.3333 15.9334C97.8667 15.4 98.2667 14.6 98.2667 13.6667C98.2667 12.7334 98 11.9334 97.3333 11.4C96.8 10.8667 96 10.4667 95.2 10.4667C94.4 10.4667 93.6 10.7334 93.0667 11.4C92.5333 11.9334 92.1333 12.7334 92.1333 13.6667C92.1333 14.6 92.4 15.4 93.0667 15.9334ZM100.8 17.6667V9.66669H102L105.867 15.9334V9.66669H106.933V17.6667H105.867L101.733 11.1334V17.6667H100.8Z" fill="white" stroke="white" stroke-width="0.266667" stroke-miterlimit="10"/>
<path d="M90.8 29.4C87.6 29.4 85.0667 31.8 85.0667 35.1333C85.0667 38.3333 87.6 40.8667 90.8 40.8667C94 40.8667 96.5333 38.4667 96.5333 35.1333C96.5333 31.6667 94 29.4 90.8 29.4ZM90.8 38.4667C89.0667 38.4667 87.6 37 87.6 35C87.6 33 89.0667 31.5333 90.8 31.5333C92.5333 31.5333 94 32.8667 94 35C94 37 92.5333 38.4667 90.8 38.4667ZM78.4 29.4C75.2 29.4 72.6667 31.8 72.6667 35.1333C72.6667 38.3333 75.2 40.8667 78.4 40.8667C81.6 40.8667 84.1333 38.4667 84.1333 35.1333C84.1333 31.6667 81.6 29.4 78.4 29.4ZM78.4 38.4667C76.6667 38.4667 75.2 37 75.2 35C75.2 33 76.6667 31.5333 78.4 31.5333C80.1333 31.5333 81.6 32.8667 81.6 35C81.6 37 80.1333 38.4667 78.4 38.4667ZM63.6 31.1333V33.5333H69.3333C69.2 34.8667 68.6667 35.9333 68 36.6C67.2 37.4 65.8667 38.3333 63.6 38.3333C60 38.3333 57.3333 35.5333 57.3333 31.9333C57.3333 28.3333 60.1333 25.5333 63.6 25.5333C65.4667 25.5333 66.9333 26.3333 68 27.2667L69.7333 25.5333C68.2667 24.2 66.4 23.1333 63.7333 23.1333C58.9333 23.1333 54.8 27.1333 54.8 31.9333C54.8 36.7333 58.9333 40.7333 63.7333 40.7333C66.4 40.7333 68.2667 39.9333 69.8667 38.2C71.4667 36.6 72 34.3333 72 32.6C72 32.0667 72 31.5333 71.8667 31.1333H63.6ZM124.133 33C123.6 31.6667 122.267 29.4 119.333 29.4C116.4 29.4 114 31.6667 114 35.1333C114 38.3333 116.4 40.8667 119.6 40.8667C122.133 40.8667 123.733 39.2667 124.267 38.3333L122.4 37C121.733 37.9333 120.933 38.6 119.6 38.6C118.267 38.6 117.467 38.0667 116.8 36.8667L124.4 33.6667L124.133 33ZM116.4 34.8667C116.4 32.7333 118.133 31.5333 119.333 31.5333C120.267 31.5333 121.2 32.0667 121.467 32.7333L116.4 34.8667ZM110.133 40.3333H112.667V23.6667H110.133V40.3333ZM106.133 30.6C105.467 29.9333 104.4 29.2667 103.067 29.2667C100.267 29.2667 97.6 31.8 97.6 35C97.6 38.2 100.133 40.6 103.067 40.6C104.4 40.6 105.467 39.9333 106 39.2667H106.133V40.0667C106.133 42.2 104.933 43.4 103.067 43.4C101.6 43.4 100.533 42.3333 100.267 41.4L98.1333 42.3333C98.8 43.8 100.4 45.6667 103.2 45.6667C106.133 45.6667 108.533 43.9333 108.533 39.8V29.6667H106.133V30.6ZM103.2 38.4667C101.467 38.4667 100 37 100 35C100 33 101.467 31.5333 103.2 31.5333C104.933 31.5333 106.267 33 106.267 35C106.267 37 104.933 38.4667 103.2 38.4667ZM135.733 23.6667H129.733V40.3333H132.267V34.0667H135.733C138.533 34.0667 141.2 32.0667 141.2 28.8667C141.2 25.6667 138.533 23.6667 135.733 23.6667ZM135.867 31.6667H132.267V25.9333H135.867C137.733 25.9333 138.8 27.5333 138.8 28.7333C138.667 30.2 137.6 31.6667 135.867 31.6667ZM151.2 29.2667C149.333 29.2667 147.467 30.0667 146.8 31.8L149.067 32.7333C149.6 31.8 150.4 31.5333 151.333 31.5333C152.667 31.5333 153.867 32.3333 154 33.6667V33.8C153.6 33.5333 152.533 33.1333 151.467 33.1333C149.067 33.1333 146.667 34.4667 146.667 36.8667C146.667 39.1333 148.667 40.6 150.8 40.6C152.533 40.6 153.333 39.8 154 39H154.133V40.3333H156.533V33.9333C156.267 31 154 29.2667 151.2 29.2667ZM150.933 38.4667C150.133 38.4667 148.933 38.0667 148.933 37C148.933 35.6667 150.4 35.2667 151.6 35.2667C152.667 35.2667 153.2 35.5333 153.867 35.8C153.6 37.4 152.267 38.4667 150.933 38.4667ZM164.933 29.6667L162.133 36.8667H162L159.067 29.6667H156.4L160.8 39.8L158.267 45.4H160.8L167.6 29.6667H164.933ZM142.533 40.3333H145.067V23.6667H142.533V40.3333Z" fill="white"/>
<path d="M13.8667 10.3334C13.4667 10.7334 13.3333 11.4 13.3333 12.2V41.6667C13.3333 42.4667 13.6 43.1334 14 43.5334L14.1333 43.6667L30.6667 27.1334V26.8667L13.8667 10.3334Z" fill="url(#paint0_linear_1_90)"/>
<path d="M36 32.7334L30.5333 27.2667V26.8667L36 21.4L36.1333 21.5334L42.6667 25.2667C44.5333 26.3334 44.5333 28.0667 42.6667 29.1334L36 32.7334Z" fill="url(#paint1_linear_1_90)"/>
<path d="M36.1333 32.6L30.5333 27L13.8667 43.6667C14.5333 44.3334 15.4667 44.3334 16.6667 43.8L36.1333 32.6Z" fill="url(#paint2_linear_1_90)"/>
<path d="M36.1333 21.4L16.6667 10.3334C15.4667 9.66668 14.5333 9.80002 13.8667 10.4667L30.5333 27L36.1333 21.4Z" fill="url(#paint3_linear_1_90)"/>
<path opacity="0.2" d="M36 32.4667L16.6667 43.4C15.6 44.0667 14.6667 43.9334 14 43.4L13.8667 43.5334L14 43.6667C14.6667 44.2 15.6 44.3334 16.6667 43.6667L36 32.4667Z" fill="black"/>
<path opacity="0.12" d="M13.8667 43.4C13.4667 43 13.3333 42.3334 13.3333 41.5334V41.6667C13.3333 42.4667 13.6 43.1334 14 43.5334V43.4H13.8667ZM42.6667 28.7334L36 32.4667L36.1333 32.6L42.6667 28.8667C43.6 28.3334 44 27.6667 44 27C44 27.6667 43.4667 28.2 42.6667 28.7334Z" fill="black"/>
<path opacity="0.25" d="M16.6667 10.4667L42.6667 25.2667C43.4667 25.8 44 26.3334 44 27C44 26.3334 43.6 25.6667 42.6667 25.1334L16.6667 10.3334C14.8 9.26669 13.3333 10.0667 13.3333 12.2V12.3334C13.3333 10.3334 14.8 9.40002 16.6667 10.4667Z" fill="white"/>
</g>
<defs>
<linearGradient id="paint0_linear_1_90" x1="29.0667" y1="11.9467" x2="6.68933" y2="34.3227" gradientUnits="userSpaceOnUse">
<stop stop-color="#00A0FF"/>
<stop offset="0.007" stop-color="#00A1FF"/>
<stop offset="0.26" stop-color="#00BEFF"/>
<stop offset="0.512" stop-color="#00D2FF"/>
<stop offset="0.76" stop-color="#00DFFF"/>
<stop offset="1" stop-color="#00E3FF"/>
</linearGradient>
<linearGradient id="paint1_linear_1_90" x1="45.112" y1="27.0014" x2="12.8493" y2="27.0014" gradientUnits="userSpaceOnUse">
<stop stop-color="#FFE000"/>
<stop offset="0.409" stop-color="#FFBD00"/>
<stop offset="0.775" stop-color="#FFA500"/>
<stop offset="1" stop-color="#FF9C00"/>
</linearGradient>
<linearGradient id="paint2_linear_1_90" x1="33.1027" y1="30.0614" x2="2.75867" y2="60.4054" gradientUnits="userSpaceOnUse">
<stop stop-color="#FF3A44"/>
<stop offset="1" stop-color="#C31162"/>
</linearGradient>
<linearGradient id="paint3_linear_1_90" x1="9.72934" y1="0.568017" x2="23.28" y2="14.1187" gradientUnits="userSpaceOnUse">
<stop stop-color="#32A071"/>
<stop offset="0.069" stop-color="#2DA771"/>
<stop offset="0.476" stop-color="#15CF74"/>
<stop offset="0.801" stop-color="#06E775"/>
<stop offset="1" stop-color="#00F076"/>
</linearGradient>
<clipPath id="clip0_1_90">
<rect width="180" height="54" fill="white"/>
</clipPath>
</defs>
</svg>
